<mxfile host="app.diagrams.net" modified="2023-09-07T11:59:01.274Z" agent="Mozilla/5.0 (Windows NT 10.0; Win64; x64) AppleWebKit/537.36 (KHTML, like Gecko) Chrome/114.0.0.0 YaBrowser/23.7.1.1140 Yowser/2.5 Safari/537.36" version="21.7.2" etag="-krlyh0apj7oUprT59Jd" type="github">
  <diagram name="Страница — 1" id="Xy3KzLYojOHdCit4F5rg">
    <mxGraphModel>
      <root>
        <mxCell id="0" />
        <mxCell id="1" parent="0" />
      </root>
    </mxGraphModel>
  </diagram>
</mxfile>
